<?xml version="1.0" standalone="no"?>
<!DOCTYPE svg PUBLIC "-//W3C//DTD SVG 20010904//EN"
 "http://www.w3.org/TR/2001/REC-SVG-20010904/DTD/svg10.dtd">
<svg version="1.0" xmlns="http://www.w3.org/2000/svg"
 width="1161.000000pt" height="360.000000pt" viewBox="0 0 1161.000000 360.000000"
 preserveAspectRatio="xMidYMid meet">

<g transform="translate(0.000000,360.000000) scale(0.100000,-0.100000)"
fill="#000000" stroke="none">
<path d="M3185 2740 c-881 -180 -1337 -270 -1346 -264 -5 3 -36 45 -69 94
l-60 89 -93 -4 c-53 -2 -136 -14 -193 -28 -54 -14 -111 -28 -126 -31 -85 -19
-94 -135 -13 -166 32 -12 295 46 340 76 22 14 28 7 345 -436 177 -247 324
-450 327 -450 2 0 3 75 1 168 -2 144 0 172 15 203 76 154 274 183 382 56 47
-55 55 -89 55 -247 l0 -135 55 -13 c54 -13 59 -12 208 33 83 25 204 61 267 80
63 19 218 66 344 104 125 38 235 76 243 84 13 13 7 57 -61 388 -42 206 -82
399 -89 429 l-12 55 -45 2 c-25 1 -238 -38 -475 -87z"/>
<path d="M4790 2610 c-116 -25 -232 -116 -286 -225 -26 -54 -29 -70 -29 -160
0 -87 3 -107 26 -155 77 -164 262 -262 436 -233 228 39 379 248 334 464 -26
123 -130 245 -249 289 -62 24 -169 33 -232 20z m175 -198 c171 -84 151 -335
-32 -388 -114 -33 -223 26 -260 142 -14 47 -15 62 -5 102 36 136 176 204 297
144z"/>
<path d="M5416 2585 c-3 -9 -6 -178 -5 -375 l0 -360 105 0 104 0 0 196 c0 107
4 193 8 190 5 -3 64 -91 132 -196 l123 -190 93 0 94 0 0 375 0 375 -105 0
-105 0 -2 -197 -3 -197 -129 197 -130 197 -87 0 c-69 0 -88 -3 -93 -15z"/>
<path d="M6250 2225 l0 -375 260 0 260 0 0 85 0 85 -160 0 -160 0 0 290 0 290
-100 0 -100 0 0 -375z"/>
<path d="M6920 2225 l0 -375 100 0 100 0 0 375 0 375 -100 0 -100 0 0 -375z"/>
<path d="M7300 2225 l0 -375 100 0 100 0 0 195 c0 107 3 195 8 195 4 0 63 -88
132 -195 l125 -195 93 0 92 0 0 375 0 375 -100 0 -100 0 0 -196 c0 -117 -4
-194 -9 -192 -5 2 -65 89 -133 193 l-124 190 -92 3 -92 3 0 -376z"/>
<path d="M8130 2225 l0 -375 280 0 280 0 0 85 0 85 -180 0 -181 0 3 58 3 57
153 3 152 3 0 84 0 85 -155 0 -155 0 0 60 0 60 170 0 170 0 0 85 0 85 -270 0
-270 0 0 -375z"/>
<path d="M2455 2024 c-16 -8 -39 -27 -50 -42 -19 -26 -20 -45 -23 -389 -1
-200 -6 -363 -10 -363 -4 0 -29 30 -57 67 -63 84 -100 102 -159 79 -49 -19
-76 -58 -76 -111 0 -68 169 -432 274 -589 90 -135 211 -223 345 -252 255 -54
504 43 598 233 l28 58 3 317 c3 273 1 321 -13 347 -29 58 -101 86 -170 67 -38
-11 -41 -10 -77 26 -45 45 -93 57 -148 35 -38 -15 -39 -14 -55 10 -33 49 -115
72 -177 48 -17 -7 -18 6 -18 176 0 155 -3 189 -18 219 -35 71 -126 101 -197
64z m104 -59 c16 -8 31 -22 35 -30 3 -9 6 -160 6 -335 0 -278 2 -319 16 -331
11 -9 20 -10 32 -2 13 8 18 31 22 107 4 88 7 100 29 117 31 25 69 24 98 -3 21
-20 23 -29 23 -139 0 -123 8 -145 47 -137 15 3 19 17 23 102 4 88 7 100 29
117 30 25 76 24 101 -1 18 -18 20 -33 20 -133 0 -121 10 -152 46 -145 17 3 20
14 24 102 5 88 8 100 29 117 42 34 103 17 121 -34 13 -40 13 -496 -1 -573 -31
-173 -196 -288 -414 -288 -106 0 -205 26 -277 74 -66 44 -149 136 -193 216
-62 111 -171 333 -204 418 -33 82 -33 109 1 127 38 21 64 3 118 -83 83 -132
102 -146 140 -108 19 19 20 33 20 419 l0 400 26 20 c32 25 46 26 83 6z"/>
<path d="M4682 1656 c-88 -29 -146 -97 -158 -189 -16 -114 47 -194 192 -245
153 -54 183 -76 171 -124 -18 -69 -191 -58 -295 20 -18 13 -34 22 -36 21 -38
-55 -85 -143 -80 -150 9 -15 95 -56 170 -81 99 -33 247 -32 321 1 93 41 143
118 142 216 -1 105 -64 163 -259 235 -94 35 -120 53 -120 84 1 62 73 82 180
50 29 -9 64 -23 77 -31 13 -9 25 -14 27 -12 7 7 66 141 66 149 0 4 -28 20 -62
36 -55 24 -77 28 -178 31 -79 2 -128 -2 -158 -11z"/>
<path d="M6333 1655 c-101 -31 -189 -107 -245 -209 -31 -58 -33 -66 -33 -166
0 -97 2 -110 30 -164 84 -166 269 -258 445 -222 91 19 158 56 221 123 239 253
51 656 -305 652 -39 0 -90 -6 -113 -14z m205 -185 c193 -88 147 -380 -63 -398
-38 -3 -70 1 -100 13 -76 28 -135 118 -135 201 0 70 69 164 140 193 40 16 112
12 158 -9z"/>
<path d="M9959 1656 c-112 -31 -218 -117 -267 -216 -24 -50 -27 -66 -27 -165
0 -102 2 -114 29 -168 106 -209 397 -283 637 -161 26 12 49 30 53 39 8 21 8
255 0 323 l-7 52 -173 0 -174 0 -1 -47 c-1 -27 -2 -64 -2 -83 l0 -35 84 -5 84
-5 3 -43 c2 -24 -2 -49 -8 -57 -19 -23 -114 -28 -177 -10 -90 26 -163 116
-163 201 0 74 58 157 135 193 64 30 156 29 218 -3 l47 -23 50 68 49 68 -31 22
c-66 47 -138 69 -228 68 -47 0 -106 -7 -131 -13z"/>
<path d="M3800 1649 c-14 -6 -83 -28 -155 -49 -249 -74 -310 -93 -313 -95 -3
-2 55 -84 73 -103 2 -2 40 8 86 22 45 14 84 24 86 23 1 -2 -9 -25 -23 -52 -67
-130 25 -278 172 -278 190 0 262 241 105 350 -22 16 -39 32 -38 37 2 5 28 18
58 28 58 20 79 39 79 74 0 48 -64 69 -130 43z m-41 -274 c32 -16 41 -33 41
-75 0 -33 -40 -70 -75 -70 -12 0 -34 9 -49 21 -42 33 -32 109 17 129 31 12 34
12 66 -5z"/>
<path d="M5250 1280 l0 -381 98 3 97 3 3 142 3 142 125 3 c69 2 128 1 130 -1
2 -2 4 -69 4 -148 l0 -143 100 0 100 0 0 380 0 381 -97 -3 -98 -3 -5 -145 -5
-145 -125 0 -125 0 -5 145 -5 145 -97 3 -98 3 0 -381z"/>
<path d="M6995 1649 c-3 -8 -4 -178 -3 -379 l3 -365 103 -3 102 -3 0 109 0
109 93 6 c127 8 160 20 222 80 54 53 85 121 85 187 0 94 -65 192 -158 236 -55
27 -64 28 -249 32 -157 4 -194 2 -198 -9z m346 -169 c50 -14 74 -43 74 -91 0
-29 -7 -46 -27 -66 -23 -23 -37 -27 -107 -31 l-81 -5 0 102 0 101 53 0 c28 0
68 -5 88 -10z"/>
<path d="M7735 1649 c-3 -8 -4 -178 -3 -379 l3 -365 103 -3 102 -3 0 109 0
109 93 6 c122 7 162 22 224 82 39 38 55 63 67 104 20 68 20 94 1 157 -19 67
-73 127 -143 161 -55 27 -62 28 -249 32 -156 2 -194 1 -198 -10z m346 -169
c50 -14 70 -40 71 -90 0 -32 -6 -48 -25 -68 -22 -22 -37 -26 -106 -30 l-81 -5
0 102 0 101 53 0 c28 0 68 -5 88 -10z"/>
<path d="M8490 1280 l0 -381 98 3 97 3 0 375 0 375 -97 3 -98 3 0 -381z"/>
<path d="M8870 1280 l0 -380 100 0 100 0 0 195 c0 107 3 195 8 195 4 0 64 -88
134 -195 l127 -195 91 0 90 0 0 380 0 380 -100 0 c-55 0 -100 -3 -101 -7 0 -5
0 -91 -1 -193 0 -102 -3 -189 -5 -193 -3 -5 -60 76 -128 180 -68 103 -128 194
-135 201 -7 8 -40 12 -95 12 l-85 0 0 -380z"/>
</g>
</svg>
