<?xml version="1.0" encoding="UTF-8"?>
<svg xmlns="http://www.w3.org/2000/svg" xmlns:xlink="http://www.w3.org/1999/xlink" width="180px" height="57px" viewBox="0 0 180 57" version="1.1">
<g id="surface1">
<path style=" stroke:none;fill-rule:nonzero;fill:rgb(0%,0%,0%);fill-opacity:1;" d="M 49.386719 13.785156 C 35.730469 16.605469 28.65625 18.015625 28.515625 17.921875 C 28.4375 17.875 27.957031 17.214844 27.445312 16.449219 L 26.519531 15.054688 L 25.074219 15.117188 C 24.253906 15.152344 22.964844 15.335938 22.082031 15.558594 C 21.246094 15.777344 20.359375 16 20.125 16.042969 C 18.804688 16.339844 18.667969 18.15625 19.925781 18.640625 C 20.421875 18.828125 24.5 17.921875 25.195312 17.449219 C 25.539062 17.234375 25.632812 17.339844 30.546875 24.277344 C 33.296875 28.136719 35.570312 31.320312 35.617188 31.320312 C 35.648438 31.320312 35.664062 30.140625 35.636719 28.6875 C 35.605469 26.4375 35.636719 25.996094 35.871094 25.511719 C 37.046875 23.101562 40.117188 22.648438 41.792969 24.632812 C 42.519531 25.492188 42.640625 26.027344 42.640625 28.5 L 42.640625 30.613281 L 43.496094 30.816406 C 44.335938 31.019531 44.410156 31.003906 46.722656 30.296875 C 48.007812 29.910156 49.882812 29.34375 50.863281 29.046875 C 51.839844 28.75 54.242188 28.015625 56.195312 27.417969 C 58.136719 26.824219 59.839844 26.226562 59.964844 26.109375 C 60.164062 25.902344 60.074219 25.210938 59.015625 20.035156 C 58.371094 16.808594 57.742188 13.785156 57.640625 13.320312 L 57.449219 12.457031 L 56.753906 12.429688 C 56.367188 12.410156 53.066406 13.023438 49.386719 13.785156 Z M 49.386719 13.785156 "/>
<path style=" stroke:none;fill-rule:nonzero;fill:rgb(0%,0%,0%);fill-opacity:1;" d="M 74.277344 15.824219 C 72.476562 16.210938 70.679688 17.636719 69.84375 19.347656 C 69.4375 20.191406 69.390625 20.441406 69.390625 21.851562 C 69.390625 23.207031 69.4375 23.523438 69.792969 24.277344 C 70.988281 26.84375 73.855469 28.375 76.558594 27.917969 C 80.089844 27.3125 82.433594 24.039062 81.734375 20.660156 C 81.328125 18.730469 79.71875 16.824219 77.875 16.140625 C 76.910156 15.757812 75.25 15.617188 74.277344 15.824219 Z M 76.992188 18.925781 C 79.636719 20.234375 79.332031 24.164062 76.488281 24.992188 C 74.726562 25.511719 73.039062 24.585938 72.464844 22.773438 C 72.242188 22.035156 72.230469 21.804688 72.382812 21.175781 C 72.941406 19.046875 75.113281 17.980469 76.992188 18.925781 Z M 76.992188 18.925781 "/>
<path style=" stroke:none;fill-rule:nonzero;fill:rgb(0%,0%,0%);fill-opacity:1;" d="M 83.984375 16.210938 C 83.9375 16.351562 83.890625 18.996094 83.90625 22.085938 L 83.90625 27.71875 L 87.144531 27.71875 L 87.144531 24.648438 C 87.144531 22.976562 87.210938 21.632812 87.269531 21.675781 C 87.351562 21.722656 88.261719 23.101562 89.3125 24.746094 L 91.222656 27.71875 L 94.125 27.71875 L 94.125 15.976562 L 90.867188 15.976562 L 90.839844 19.066406 L 90.789062 22.144531 L 88.789062 19.066406 L 86.773438 15.976562 L 85.429688 15.976562 C 84.359375 15.976562 84.0625 16.027344 83.984375 16.210938 Z M 83.984375 16.210938 "/>
<path style=" stroke:none;fill-rule:nonzero;fill:rgb(0%,0%,0%);fill-opacity:1;" d="M 96.914062 21.851562 L 96.914062 27.71875 L 104.980469 27.71875 L 104.980469 25.058594 L 100.015625 25.058594 L 100.015625 15.976562 L 96.914062 15.976562 Z M 96.914062 21.851562 "/>
<path style=" stroke:none;fill-rule:nonzero;fill:rgb(0%,0%,0%);fill-opacity:1;" d="M 107.300781 21.851562 L 107.300781 27.71875 L 110.40625 27.71875 L 110.40625 15.976562 L 107.300781 15.976562 Z M 107.300781 21.851562 "/>
<path style=" stroke:none;fill-rule:nonzero;fill:rgb(0%,0%,0%);fill-opacity:1;" d="M 113.199219 21.851562 L 113.199219 27.71875 L 116.300781 27.71875 L 116.300781 24.664062 C 116.300781 22.992188 116.347656 21.609375 116.425781 21.609375 C 116.484375 21.609375 117.398438 22.992188 118.472656 24.664062 L 120.40625 27.71875 L 123.273438 27.71875 L 123.273438 15.976562 L 120.175781 15.976562 L 120.175781 19.046875 C 120.175781 20.875 120.113281 22.085938 120.035156 22.050781 C 119.957031 22.019531 119.027344 20.660156 117.972656 19.03125 L 116.054688 16.058594 L 114.625 16.011719 L 113.199219 15.964844 Z M 113.199219 21.851562 "/>
<path style=" stroke:none;fill-rule:nonzero;fill:rgb(0%,0%,0%);fill-opacity:1;" d="M 126.070312 21.851562 L 126.070312 27.71875 L 134.75 27.71875 L 134.75 25.058594 L 129.15625 25.058594 L 129.203125 24.148438 L 129.25 23.257812 L 131.621094 23.207031 L 133.976562 23.160156 L 133.976562 20.515625 L 129.167969 20.515625 L 129.167969 18.640625 L 134.441406 18.640625 L 134.441406 15.976562 L 126.070312 15.976562 Z M 126.070312 21.851562 "/>
<path style=" stroke:none;fill-rule:nonzero;fill:rgb(0%,0%,0%);fill-opacity:1;" d="M 38.066406 24.992188 C 37.816406 25.121094 37.464844 25.417969 37.292969 25.652344 C 37 26.058594 36.980469 26.355469 36.933594 31.738281 C 36.917969 34.867188 36.84375 37.421875 36.78125 37.421875 C 36.71875 37.421875 36.328125 36.949219 35.898438 36.371094 C 34.917969 35.054688 34.34375 34.773438 33.433594 35.136719 C 32.675781 35.433594 32.257812 36.042969 32.257812 36.875 C 32.257812 37.933594 34.871094 43.636719 36.503906 46.09375 C 37.898438 48.203125 39.773438 49.582031 41.851562 50.035156 C 45.804688 50.875 49.667969 49.359375 51.121094 46.390625 L 51.5625 45.476562 L 51.609375 40.519531 C 51.652344 36.242188 51.621094 35.496094 51.402344 35.085938 C 50.957031 34.179688 49.839844 33.742188 48.765625 34.039062 C 48.179688 34.210938 48.132812 34.195312 47.574219 33.628906 C 46.875 32.929688 46.128906 32.742188 45.28125 33.085938 C 44.6875 33.316406 44.675781 33.304688 44.425781 32.929688 C 43.914062 32.160156 42.640625 31.800781 41.679688 32.175781 C 41.417969 32.289062 41.402344 32.082031 41.402344 29.421875 C 41.402344 27 41.355469 26.46875 41.121094 25.996094 C 40.582031 24.886719 39.167969 24.417969 38.066406 24.992188 Z M 39.683594 25.917969 C 39.925781 26.042969 40.160156 26.261719 40.222656 26.386719 C 40.269531 26.527344 40.316406 28.894531 40.316406 31.625 C 40.316406 35.984375 40.347656 36.625 40.566406 36.808594 C 40.734375 36.949219 40.875 36.964844 41.0625 36.839844 C 41.261719 36.71875 41.339844 36.355469 41.402344 35.167969 C 41.46875 33.792969 41.511719 33.601562 41.851562 33.335938 C 42.332031 32.945312 42.921875 32.960938 43.371094 33.382812 C 43.695312 33.699219 43.730469 33.839844 43.730469 35.558594 C 43.730469 37.480469 43.855469 37.824219 44.453125 37.699219 C 44.6875 37.652344 44.75 37.4375 44.816406 36.101562 C 44.875 34.726562 44.917969 34.542969 45.265625 34.273438 C 45.730469 33.882812 46.445312 33.898438 46.828125 34.292969 C 47.109375 34.574219 47.140625 34.808594 47.140625 36.371094 C 47.140625 38.269531 47.292969 38.75 47.855469 38.640625 C 48.117188 38.597656 48.164062 38.425781 48.226562 37.046875 C 48.300781 35.671875 48.347656 35.480469 48.671875 35.214844 C 49.328125 34.683594 50.273438 34.949219 50.550781 35.746094 C 50.75 36.371094 50.75 43.507812 50.539062 44.714844 C 50.058594 47.421875 47.496094 49.21875 44.113281 49.21875 C 42.472656 49.21875 40.9375 48.8125 39.824219 48.0625 C 38.796875 47.375 37.515625 45.933594 36.828125 44.683594 C 35.871094 42.945312 34.175781 39.472656 33.667969 38.144531 C 33.15625 36.859375 33.15625 36.4375 33.679688 36.152344 C 34.269531 35.824219 34.671875 36.101562 35.507812 37.453125 C 36.796875 39.519531 37.09375 39.738281 37.679688 39.144531 C 37.972656 38.84375 37.992188 38.625 37.992188 32.582031 L 37.992188 26.324219 L 38.390625 26.015625 C 38.890625 25.621094 39.109375 25.605469 39.683594 25.917969 Z M 39.683594 25.917969 "/>
<path style=" stroke:none;fill-rule:nonzero;fill:rgb(0%,0%,0%);fill-opacity:1;" d="M 72.605469 30.75 C 71.238281 31.207031 70.335938 32.269531 70.148438 33.710938 C 69.902344 35.496094 70.878906 36.746094 73.128906 37.546875 C 75.5 38.390625 75.964844 38.738281 75.78125 39.484375 C 75.5 40.566406 72.816406 40.394531 71.207031 39.171875 C 70.929688 38.96875 70.679688 38.828125 70.648438 38.84375 C 70.058594 39.703125 69.328125 41.082031 69.410156 41.195312 C 69.550781 41.425781 70.878906 42.070312 72.042969 42.457031 C 73.578125 42.976562 75.871094 42.960938 77.023438 42.445312 C 78.460938 41.804688 79.238281 40.601562 79.226562 39.0625 C 79.203125 37.421875 78.230469 36.511719 75.207031 35.390625 C 73.746094 34.839844 73.34375 34.554688 73.34375 34.074219 C 73.363281 33.101562 74.480469 32.789062 76.136719 33.289062 C 76.585938 33.429688 77.128906 33.652344 77.328125 33.769531 C 77.535156 33.914062 77.722656 33.992188 77.75 33.960938 C 77.863281 33.851562 78.773438 31.753906 78.773438 31.625 C 78.773438 31.566406 78.339844 31.320312 77.8125 31.066406 C 76.957031 30.691406 76.617188 30.632812 75.050781 30.585938 C 73.828125 30.550781 73.070312 30.613281 72.605469 30.75 Z M 72.605469 30.75 "/>
<path style=" stroke:none;fill-rule:nonzero;fill:rgb(0%,0%,0%);fill-opacity:1;" d="M 98.203125 30.773438 C 96.636719 31.253906 95.273438 32.441406 94.402344 34.039062 C 93.925781 34.949219 93.894531 35.074219 93.894531 36.636719 C 93.894531 38.15625 93.925781 38.359375 94.359375 39.203125 C 95.65625 41.804688 98.53125 43.242188 101.261719 42.679688 C 102.671875 42.382812 103.710938 41.804688 104.683594 40.753906 C 108.394531 36.792969 105.472656 30.488281 99.957031 30.550781 C 99.351562 30.550781 98.558594 30.644531 98.203125 30.773438 Z M 101.378906 33.664062 C 104.375 35.039062 103.664062 39.613281 100.40625 39.894531 C 99.816406 39.941406 99.320312 39.878906 98.851562 39.691406 C 97.675781 39.25 96.761719 37.839844 96.761719 36.546875 C 96.761719 35.449219 97.832031 33.980469 98.929688 33.523438 C 99.550781 33.273438 100.667969 33.335938 101.378906 33.664062 Z M 101.378906 33.664062 "/>
<path style=" stroke:none;fill-rule:nonzero;fill:rgb(0%,0%,0%);fill-opacity:1;" d="M 154.433594 30.75 C 152.695312 31.238281 151.050781 32.582031 150.285156 34.132812 C 149.917969 34.914062 149.875 35.167969 149.875 36.71875 C 149.875 38.316406 149.902344 38.5 150.316406 39.34375 C 151.960938 42.621094 156.476562 43.777344 160.195312 41.863281 C 160.601562 41.675781 160.960938 41.394531 161.019531 41.253906 C 161.144531 40.929688 161.144531 37.265625 161.019531 36.199219 L 160.914062 35.390625 L 155.53125 35.390625 L 155.515625 36.125 C 155.5 36.546875 155.484375 37.125 155.484375 37.421875 L 155.484375 37.96875 L 156.785156 38.046875 L 158.089844 38.121094 L 158.136719 38.796875 C 158.164062 39.171875 158.105469 39.5625 158.011719 39.691406 C 157.71875 40.050781 156.246094 40.125 155.265625 39.84375 C 153.871094 39.4375 152.742188 38.03125 152.742188 36.699219 C 152.742188 35.542969 153.636719 34.246094 154.832031 33.679688 C 155.824219 33.210938 157.25 33.226562 158.214844 33.726562 L 158.945312 34.089844 L 159.71875 33.023438 L 160.476562 31.960938 L 159.996094 31.613281 C 158.972656 30.878906 157.855469 30.53125 156.460938 30.550781 C 155.730469 30.550781 154.816406 30.660156 154.433594 30.75 Z M 154.433594 30.75 "/>
<path style=" stroke:none;fill-rule:nonzero;fill:rgb(0%,0%,0%);fill-opacity:1;" d="M 58.921875 30.863281 C 58.710938 30.957031 57.640625 31.300781 56.519531 31.625 C 52.660156 32.789062 51.714844 33.085938 51.667969 33.117188 C 51.621094 33.148438 52.519531 34.433594 52.800781 34.726562 C 52.832031 34.757812 53.421875 34.601562 54.128906 34.386719 C 54.828125 34.164062 55.433594 34.007812 55.464844 34.023438 C 55.480469 34.054688 55.328125 34.414062 55.109375 34.839844 C 54.070312 36.875 55.496094 39.191406 57.777344 39.191406 C 60.722656 39.191406 61.84375 35.417969 59.410156 33.710938 C 59.0625 33.457031 58.800781 33.210938 58.8125 33.132812 C 58.847656 33.058594 59.246094 32.851562 59.714844 32.695312 C 60.613281 32.382812 60.9375 32.082031 60.9375 31.535156 C 60.9375 30.785156 59.949219 30.457031 58.921875 30.863281 Z M 58.289062 35.148438 C 58.78125 35.402344 58.921875 35.671875 58.921875 36.324219 C 58.921875 36.839844 58.304688 37.421875 57.765625 37.421875 C 57.574219 37.421875 57.234375 37.28125 57.003906 37.089844 C 56.351562 36.578125 56.503906 35.390625 57.265625 35.074219 C 57.742188 34.886719 57.792969 34.886719 58.289062 35.148438 Z M 58.289062 35.148438 "/>
<path style=" stroke:none;fill-rule:nonzero;fill:rgb(0%,0%,0%);fill-opacity:1;" d="M 81.410156 36.636719 L 81.410156 42.597656 L 82.925781 42.550781 L 84.429688 42.507812 L 84.476562 40.289062 L 84.527344 38.0625 L 86.46875 38.015625 C 87.539062 37.980469 88.449219 38.003906 88.480469 38.03125 C 88.511719 38.0625 88.542969 39.109375 88.542969 40.347656 L 88.542969 42.585938 L 91.644531 42.585938 L 91.644531 30.675781 L 90.140625 30.722656 L 88.621094 30.773438 L 88.542969 33.035156 L 88.464844 35.308594 L 84.589844 35.308594 L 84.511719 33.035156 L 84.429688 30.773438 L 82.925781 30.722656 L 81.410156 30.675781 Z M 81.410156 36.636719 "/>
<path style=" stroke:none;fill-rule:nonzero;fill:rgb(0%,0%,0%);fill-opacity:1;" d="M 108.464844 30.863281 C 108.421875 30.984375 108.40625 33.652344 108.421875 36.792969 L 108.464844 42.507812 L 110.066406 42.550781 L 111.644531 42.597656 L 111.644531 39.191406 L 113.089844 39.09375 C 115.058594 38.96875 115.566406 38.78125 116.535156 37.839844 C 117.371094 37.015625 117.847656 35.949219 117.847656 34.914062 C 117.847656 33.445312 116.839844 31.914062 115.398438 31.226562 C 114.550781 30.800781 114.410156 30.785156 111.542969 30.722656 C 109.105469 30.660156 108.53125 30.691406 108.464844 30.863281 Z M 113.832031 33.511719 C 114.609375 33.726562 114.980469 34.179688 114.980469 34.933594 C 114.980469 35.390625 114.875 35.648438 114.5625 35.960938 C 114.203125 36.324219 113.988281 36.382812 112.90625 36.449219 L 111.644531 36.53125 L 111.644531 33.347656 L 112.46875 33.347656 C 112.90625 33.347656 113.523438 33.429688 113.832031 33.511719 Z M 113.832031 33.511719 "/>
<path style=" stroke:none;fill-rule:nonzero;fill:rgb(0%,0%,0%);fill-opacity:1;" d="M 119.941406 30.863281 C 119.894531 30.984375 119.882812 33.652344 119.894531 36.792969 L 119.941406 42.507812 L 121.539062 42.550781 L 123.121094 42.597656 L 123.121094 39.191406 L 124.566406 39.09375 C 126.453125 38.984375 127.074219 38.75 128.039062 37.8125 C 128.644531 37.21875 128.890625 36.824219 129.078125 36.183594 C 129.386719 35.121094 129.386719 34.714844 129.089844 33.726562 C 128.796875 32.679688 127.957031 31.738281 126.875 31.207031 C 126.023438 30.785156 125.914062 30.773438 123.015625 30.703125 C 120.589844 30.675781 120.007812 30.691406 119.941406 30.863281 Z M 125.308594 33.511719 C 126.082031 33.726562 126.394531 34.132812 126.410156 34.914062 C 126.410156 35.417969 126.3125 35.671875 126.023438 35.984375 C 125.679688 36.324219 125.449219 36.382812 124.378906 36.449219 L 123.121094 36.53125 L 123.121094 33.347656 L 123.945312 33.347656 C 124.378906 33.347656 125 33.429688 125.308594 33.511719 Z M 125.308594 33.511719 "/>
<path style=" stroke:none;fill-rule:nonzero;fill:rgb(0%,0%,0%);fill-opacity:1;" d="M 131.652344 36.636719 L 131.652344 42.597656 L 133.171875 42.550781 L 134.675781 42.507812 L 134.675781 30.773438 L 133.171875 30.722656 L 131.652344 30.675781 Z M 131.652344 36.636719 "/>
<path style=" stroke:none;fill-rule:nonzero;fill:rgb(0%,0%,0%);fill-opacity:1;" d="M 137.542969 36.636719 L 137.542969 42.585938 L 140.640625 42.585938 L 140.640625 39.53125 C 140.640625 37.859375 140.691406 36.484375 140.769531 36.484375 C 140.832031 36.484375 141.761719 37.859375 142.847656 39.53125 L 144.816406 42.585938 L 147.625 42.585938 L 147.625 30.691406 L 146.070312 30.691406 C 145.222656 30.691406 144.523438 30.738281 144.503906 30.800781 C 144.503906 30.878906 144.503906 32.222656 144.492188 33.820312 C 144.492188 35.417969 144.445312 36.777344 144.410156 36.839844 C 144.363281 36.917969 143.484375 35.648438 142.425781 34.023438 C 141.375 32.414062 140.441406 30.984375 140.335938 30.878906 C 140.226562 30.75 139.710938 30.691406 138.863281 30.691406 L 137.542969 30.691406 Z M 137.542969 36.636719 "/>
</g>
</svg>
